<svg id="Layer_2" data-name="Layer 2" xmlns="http://www.w3.org/2000/svg" viewBox="0 0 770 770">
  <g>
    <g>
      <g>
        <g>
          <g>
            <line x1="153.46" y1="428.91" x2="153.46" y2="711.11" fill="none" stroke="#fff" stroke-linecap="round" stroke-linejoin="round" stroke-width="6"/>
            <path d="M171.48,612.34c7.24,34.38,10.51,67.38,23.67,98.77" fill="none" stroke="#fff" stroke-linecap="round" stroke-linejoin="round" stroke-width="6"/>
            <path d="M153.46,626.45c48.07,0,48.07-197.54,0-197.54" fill="none" stroke="#fff" stroke-linecap="round" stroke-linejoin="round" stroke-width="6"/>
          </g>
          <g>
            <line x1="153.46" y1="428.91" x2="153.46" y2="711.11" fill="none" stroke="#fff" stroke-linecap="round" stroke-linejoin="round" stroke-width="14"/>
            <path d="M171.48,612.34c7.24,34.38,10.51,67.38,23.67,98.77" fill="none" stroke="#fff" stroke-linecap="round" stroke-linejoin="round" stroke-width="14"/>
            <path d="M153.46,626.45c48.07,0,48.07-197.54,0-197.54" fill="none" stroke="#fff" stroke-linecap="round" stroke-linejoin="round" stroke-width="14"/>
          </g>
        </g>
        <g>
          <g>
            <polyline points="214.91 710.34 239.35 428.53 262.99 711.11" fill="none" stroke="#fff" stroke-linecap="round" stroke-linejoin="round" stroke-width="6"/>
            <line x1="227.01" y1="654.1" x2="251.05" y2="654.48" fill="none" stroke="#fff" stroke-linecap="round" stroke-linejoin="round" stroke-width="6"/>
          </g>
          <g>
            <polyline points="214.91 710.34 239.35 428.53 262.99 711.11" fill="none" stroke="#fff" stroke-linecap="round" stroke-linejoin="round" stroke-width="14"/>
            <line x1="227.01" y1="654.1" x2="251.05" y2="654.48" fill="none" stroke="#fff" stroke-linecap="round" stroke-linejoin="round" stroke-width="14"/>
          </g>
        </g>
        <g>
          <g>
            <line x1="76.99" y1="428.91" x2="76.99" y2="711.11" fill="none" stroke="#fff" stroke-linecap="round" stroke-linejoin="round" stroke-width="6"/>
            <path d="M77,555.9c55,0,67.6,155.21,0,155.21" fill="none" stroke="#fff" stroke-linecap="round" stroke-linejoin="round" stroke-width="6"/>
            <path d="M77,428.91c48.08,0,48.08,127,0,127" fill="none" stroke="#fff" stroke-linecap="round" stroke-linejoin="round" stroke-width="6"/>
          </g>
          <g>
            <line x1="76.99" y1="428.91" x2="76.99" y2="711.11" fill="none" stroke="#fff" stroke-linecap="round" stroke-linejoin="round" stroke-width="14"/>
            <path d="M77,555.9c55,0,67.6,155.21,0,155.21" fill="none" stroke="#fff" stroke-linecap="round" stroke-linejoin="round" stroke-width="14"/>
            <path d="M77,428.91c48.08,0,48.08,127,0,127" fill="none" stroke="#fff" stroke-linecap="round" stroke-linejoin="round" stroke-width="14"/>
          </g>
        </g>
        <path d="M325.83,711.11c24,0,24-86.07,24-141.1s-5.43-140.63-24-140.63S301.79,514.51,301.79,570s0,141.1,24,141.1" fill="none" stroke="#fff" stroke-linecap="round" stroke-linejoin="round" stroke-width="14"/>
      </g>
      <g>
        <g>
          <g>
            <line x1="496.6" y1="428.91" x2="496.6" y2="711.11" fill="none" stroke="#fff" stroke-linecap="round" stroke-linejoin="round" stroke-width="6"/>
            <path d="M514.63,612.34c7.23,34.38,10.5,67.38,23.66,98.77" fill="none" stroke="#fff" stroke-linecap="round" stroke-linejoin="round" stroke-width="6"/>
            <path d="M496.6,626.45c48.08,0,48.08-197.54,0-197.54" fill="none" stroke="#fff" stroke-linecap="round" stroke-linejoin="round" stroke-width="6"/>
          </g>
          <g>
            <line x1="496.6" y1="428.91" x2="496.6" y2="711.11" fill="none" stroke="#fff" stroke-linecap="round" stroke-linejoin="round" stroke-width="14"/>
            <path d="M514.63,612.34c7.23,34.38,10.5,67.38,23.66,98.77" fill="none" stroke="#fff" stroke-linecap="round" stroke-linejoin="round" stroke-width="14"/>
            <path d="M496.6,626.45c48.08,0,48.08-197.54,0-197.54" fill="none" stroke="#fff" stroke-linecap="round" stroke-linejoin="round" stroke-width="14"/>
          </g>
        </g>
        <g>
          <g>
            <polyline points="558.05 710.34 582.49 428.53 606.13 711.11" fill="none" stroke="#fff" stroke-linecap="round" stroke-linejoin="round" stroke-width="6"/>
            <line x1="570.15" y1="654.1" x2="594.19" y2="654.48" fill="none" stroke="#fff" stroke-linecap="round" stroke-linejoin="round" stroke-width="6"/>
          </g>
          <g>
            <polyline points="558.05 710.34 582.49 428.53 606.13 711.11" fill="none" stroke="#fff" stroke-linecap="round" stroke-linejoin="round" stroke-width="14"/>
            <line x1="570.15" y1="654.1" x2="594.19" y2="654.48" fill="none" stroke="#fff" stroke-linecap="round" stroke-linejoin="round" stroke-width="14"/>
          </g>
        </g>
        <g>
          <g>
            <line x1="420.13" y1="428.91" x2="420.13" y2="711.11" fill="none" stroke="#fff" stroke-linecap="round" stroke-linejoin="round" stroke-width="6"/>
            <path d="M420.13,555.9c55,0,67.61,155.21,0,155.21" fill="none" stroke="#fff" stroke-linecap="round" stroke-linejoin="round" stroke-width="6"/>
            <path d="M420.13,428.91c48.08,0,48.08,127,0,127" fill="none" stroke="#fff" stroke-linecap="round" stroke-linejoin="round" stroke-width="6"/>
          </g>
          <g>
            <line x1="420.13" y1="428.91" x2="420.13" y2="711.11" fill="none" stroke="#fff" stroke-linecap="round" stroke-linejoin="round" stroke-width="14"/>
            <path d="M420.13,555.9c55,0,67.61,155.21,0,155.21" fill="none" stroke="#fff" stroke-linecap="round" stroke-linejoin="round" stroke-width="14"/>
            <path d="M420.13,428.91c48.08,0,48.08,127,0,127" fill="none" stroke="#fff" stroke-linecap="round" stroke-linejoin="round" stroke-width="14"/>
          </g>
        </g>
        <path d="M669,711.11c24,0,24-86.07,24-141.1s-5.43-140.63-24-140.63S644.93,514.51,644.93,570s0,141.1,24,141.1" fill="none" stroke="#fff" stroke-linecap="round" stroke-linejoin="round" stroke-width="14"/>
      </g>
    </g>
    <g>
      <g>
        <g>
          <line x1="281.5" y1="61.98" x2="276.71" y2="94.42" fill="none" stroke="#fff" stroke-linecap="round" stroke-linejoin="round" stroke-width="6"/>
          <line x1="281.5" y1="61.98" x2="276.71" y2="94.42" fill="none" stroke="#fff" stroke-linecap="round" stroke-linejoin="round" stroke-width="14"/>
        </g>
        <g>
          <g>
            <line x1="153.46" y1="77.97" x2="153.46" y2="360.16" fill="none" stroke="#fff" stroke-linecap="round" stroke-linejoin="round" stroke-width="6"/>
            <path d="M171.48,261.39c7.24,34.39,10.51,67.39,23.67,98.77" fill="none" stroke="#fff" stroke-linecap="round" stroke-linejoin="round" stroke-width="6"/>
            <path d="M153.46,275.5c48.07,0,48.07-197.53,0-197.53" fill="none" stroke="#fff" stroke-linecap="round" stroke-linejoin="round" stroke-width="6"/>
          </g>
          <g>
            <line x1="153.46" y1="77.97" x2="153.46" y2="360.16" fill="none" stroke="#fff" stroke-linecap="round" stroke-linejoin="round" stroke-width="14"/>
            <path d="M171.48,261.39c7.24,34.39,10.51,67.39,23.67,98.77" fill="none" stroke="#fff" stroke-linecap="round" stroke-linejoin="round" stroke-width="14"/>
            <path d="M153.46,275.5c48.07,0,48.07-197.53,0-197.53" fill="none" stroke="#fff" stroke-linecap="round" stroke-linejoin="round" stroke-width="14"/>
          </g>
        </g>
        <g>
          <g>
            <polyline points="214.91 359.4 239.35 77.59 262.99 360.16" fill="none" stroke="#fff" stroke-linecap="round" stroke-linejoin="round" stroke-width="6"/>
            <line x1="227.01" y1="303.15" x2="251.05" y2="303.53" fill="none" stroke="#fff" stroke-linecap="round" stroke-linejoin="round" stroke-width="6"/>
          </g>
          <g>
            <polyline points="214.91 359.4 239.35 77.59 262.99 360.16" fill="none" stroke="#fff" stroke-linecap="round" stroke-linejoin="round" stroke-width="14"/>
            <line x1="227.01" y1="303.15" x2="251.05" y2="303.53" fill="none" stroke="#fff" stroke-linecap="round" stroke-linejoin="round" stroke-width="14"/>
          </g>
        </g>
        <g>
          <g>
            <line x1="76.99" y1="77.97" x2="76.99" y2="360.16" fill="none" stroke="#fff" stroke-linecap="round" stroke-linejoin="round" stroke-width="6"/>
            <path d="M77,205c55,0,67.6,155.21,0,155.21" fill="none" stroke="#fff" stroke-linecap="round" stroke-linejoin="round" stroke-width="6"/>
            <path d="M77,78c48.08,0,48.08,127,0,127" fill="none" stroke="#fff" stroke-linecap="round" stroke-linejoin="round" stroke-width="6"/>
          </g>
          <g>
            <line x1="76.99" y1="77.97" x2="76.99" y2="360.16" fill="none" stroke="#fff" stroke-linecap="round" stroke-linejoin="round" stroke-width="14"/>
            <path d="M77,205c55,0,67.6,155.21,0,155.21" fill="none" stroke="#fff" stroke-linecap="round" stroke-linejoin="round" stroke-width="14"/>
            <path d="M77,78c48.08,0,48.08,127,0,127" fill="none" stroke="#fff" stroke-linecap="round" stroke-linejoin="round" stroke-width="14"/>
          </g>
        </g>
        <path d="M325.83,360.16c24,0,24-86.07,24-141.1s-5.43-140.62-24-140.62-24.08,85.13-24.08,140.62,0,141.1,24,141.1" fill="none" stroke="#fff" stroke-linecap="round" stroke-linejoin="round" stroke-width="14"/>
      </g>
      <g>
        <g>
          <g>
            <line x1="496.6" y1="77.97" x2="496.6" y2="360.16" fill="none" stroke="#fff" stroke-linecap="round" stroke-linejoin="round" stroke-width="6"/>
            <path d="M514.63,261.39c7.23,34.39,10.5,67.39,23.66,98.77" fill="none" stroke="#fff" stroke-linecap="round" stroke-linejoin="round" stroke-width="6"/>
            <path d="M496.6,275.5c48.08,0,48.08-197.53,0-197.53" fill="none" stroke="#fff" stroke-linecap="round" stroke-linejoin="round" stroke-width="6"/>
          </g>
          <g>
            <line x1="496.6" y1="77.97" x2="496.6" y2="360.16" fill="none" stroke="#fff" stroke-linecap="round" stroke-linejoin="round" stroke-width="14"/>
            <path d="M514.63,261.39c7.23,34.39,10.5,67.39,23.66,98.77" fill="none" stroke="#fff" stroke-linecap="round" stroke-linejoin="round" stroke-width="14"/>
            <path d="M496.6,275.5c48.08,0,48.08-197.53,0-197.53" fill="none" stroke="#fff" stroke-linecap="round" stroke-linejoin="round" stroke-width="14"/>
          </g>
        </g>
        <g>
          <g>
            <polyline points="558.05 359.4 582.49 77.59 606.13 360.16" fill="none" stroke="#fff" stroke-linecap="round" stroke-linejoin="round" stroke-width="6"/>
            <line x1="570.15" y1="303.15" x2="594.19" y2="303.53" fill="none" stroke="#fff" stroke-linecap="round" stroke-linejoin="round" stroke-width="6"/>
          </g>
          <g>
            <polyline points="558.05 359.4 582.49 77.59 606.13 360.16" fill="none" stroke="#fff" stroke-linecap="round" stroke-linejoin="round" stroke-width="14"/>
            <line x1="570.15" y1="303.15" x2="594.19" y2="303.53" fill="none" stroke="#fff" stroke-linecap="round" stroke-linejoin="round" stroke-width="14"/>
          </g>
        </g>
        <g>
          <g>
            <line x1="420.13" y1="77.97" x2="420.13" y2="360.16" fill="none" stroke="#fff" stroke-linecap="round" stroke-linejoin="round" stroke-width="6"/>
            <path d="M420.13,205c55,0,67.61,155.21,0,155.21" fill="none" stroke="#fff" stroke-linecap="round" stroke-linejoin="round" stroke-width="6"/>
            <path d="M420.13,78c48.08,0,48.08,127,0,127" fill="none" stroke="#fff" stroke-linecap="round" stroke-linejoin="round" stroke-width="6"/>
          </g>
          <g>
            <line x1="420.13" y1="77.97" x2="420.13" y2="360.16" fill="none" stroke="#fff" stroke-linecap="round" stroke-linejoin="round" stroke-width="14"/>
            <path d="M420.13,205c55,0,67.61,155.21,0,155.21" fill="none" stroke="#fff" stroke-linecap="round" stroke-linejoin="round" stroke-width="14"/>
            <path d="M420.13,78c48.08,0,48.08,127,0,127" fill="none" stroke="#fff" stroke-linecap="round" stroke-linejoin="round" stroke-width="14"/>
          </g>
        </g>
        <path d="M669,360.16c24,0,24-86.07,24-141.1S687.58,78.44,669,78.44s-24.08,85.13-24.08,140.62,0,141.1,24,141.1" fill="none" stroke="#fff" stroke-linecap="round" stroke-linejoin="round" stroke-width="14"/>
      </g>
    </g>
  </g>
  <g>
    <line x1="624.64" y1="61.98" x2="619.85" y2="94.42" fill="none" stroke="#fff" stroke-linecap="round" stroke-linejoin="round" stroke-width="6"/>
    <line x1="624.64" y1="61.98" x2="619.85" y2="94.42" fill="none" stroke="#fff" stroke-linecap="round" stroke-linejoin="round" stroke-width="14"/>
  </g>
  <g>
    <line x1="281.5" y1="409.02" x2="276.71" y2="441.46" fill="none" stroke="#fff" stroke-linecap="round" stroke-linejoin="round" stroke-width="6"/>
    <line x1="281.5" y1="409.02" x2="276.71" y2="441.46" fill="none" stroke="#fff" stroke-linecap="round" stroke-linejoin="round" stroke-width="14"/>
  </g>
  <g>
    <line x1="624.64" y1="409.02" x2="619.85" y2="441.46" fill="none" stroke="#fff" stroke-linecap="round" stroke-linejoin="round" stroke-width="6"/>
    <line x1="624.64" y1="409.02" x2="619.85" y2="441.46" fill="none" stroke="#fff" stroke-linecap="round" stroke-linejoin="round" stroke-width="14"/>
  </g>
</svg>
