<svg xmlns="http://www.w3.org/2000/svg" viewBox="0 0 770 770">
  <g style="isolation: isolate">
    <g id="Layer_1" data-name="Layer 1">
      <g>
        <g>
          <line x1="69.59" y1="422.87" x2="69.59" y2="700.75" fill="none" stroke="#fff" stroke-linecap="round" stroke-linejoin="round" stroke-width="16"/>
          <path d="M69.59,422.87c76.79,0,76.79,218.36,0,218.36" fill="none" stroke="#fff" stroke-linecap="round" stroke-linejoin="round" stroke-width="16"/>
        </g>
        <path d="M185.46,700.47c33.63,0,33.63-84.81,33.63-139s-7.6-138.57-33.57-138.57-33.69,83.89-33.69,138.57,0,139,33.63,139" fill="none" stroke="#fff" stroke-linecap="round" stroke-linejoin="round" stroke-width="16"/>
        <g>
          <line x1="401.1" y1="396.36" x2="416.36" y2="387.46" fill="none" stroke="#fff" stroke-linecap="round" stroke-linejoin="round" stroke-width="16"/>
          <line x1="381.77" y1="387.46" x2="401.1" y2="396.36" fill="none" stroke="#fff" stroke-linecap="round" stroke-linejoin="round" stroke-width="16"/>
          <line x1="381.77" y1="387.46" x2="401.1" y2="396.36" fill="none" stroke="#fff" stroke-linecap="round" stroke-linejoin="round" stroke-width="16"/>
        </g>
        <g>
          <line x1="69.59" y1="69.24" x2="69.59" y2="347.11" fill="none" stroke="#fff" stroke-linecap="round" stroke-linejoin="round" stroke-width="16"/>
          <path d="M69.59,69.24c59.93,0,122.08,277.87,0,277.87" fill="none" stroke="#fff" stroke-linecap="round" stroke-linejoin="round" stroke-width="16"/>
        </g>
        <line x1="394.23" y1="69.24" x2="394.23" y2="347.11" fill="none" stroke="#fff" stroke-linecap="round" stroke-linejoin="round" stroke-width="16"/>
        <line x1="459.12" y1="422.87" x2="459.12" y2="700.75" fill="none" stroke="#fff" stroke-linecap="round" stroke-linejoin="round" stroke-width="16"/>
        <g style="mix-blend-mode: multiply">
          <path d="M281.89,69.24c77.56,0,77.56,125,0,125" fill="none" stroke="#fff" stroke-linecap="round" stroke-linejoin="round" stroke-width="16"/>
          <line x1="281.89" y1="69.24" x2="281.89" y2="347.11" fill="none" stroke="#fff" stroke-linecap="round" stroke-linejoin="round" stroke-width="16"/>
          <path d="M281.89,194.28c88.75,0,109.07,152.83,0,152.83" fill="none" stroke="#fff" stroke-linecap="round" stroke-linejoin="round" stroke-width="16"/>
        </g>
        <path d="M471.76,346.88c33.3,0,33.3-84.75,33.3-138.94S497.53,69.47,471.82,69.47s-33.35,83.82-33.35,138.47,0,138.94,33.29,138.94" fill="none" stroke="#fff" stroke-linecap="round" stroke-linejoin="round" stroke-width="16"/>
        <path d="M207.58,347.11c37.74,0,37.74-84.79,37.74-139S236.79,69.55,207.65,69.55s-37.81,83.87-37.81,138.55,0,139,37.74,139" fill="none" stroke="#fff" stroke-linecap="round" stroke-linejoin="round" stroke-width="16"/>
        <line x1="677.71" y1="69.24" x2="677.71" y2="347.11" fill="none" stroke="#fff" stroke-linecap="round" stroke-linejoin="round" stroke-width="16"/>
        <path d="M631.4,75.44c-36.52-33.75-52.15,51.66-19.19,117.49s26.36,189.63-23.46,143.59" fill="none" stroke="#fff" stroke-linecap="round" stroke-linejoin="round" stroke-width="16"/>
        <path d="M337.5,422.87c6,211.8,8.66,277.88-22.46,277.88s-28.1-112.7-22.66-277.88" fill="none" stroke="#fff" stroke-linecap="round" stroke-linejoin="round" stroke-width="16"/>
        <g>
          <polyline points="626.72 700.19 660.83 422.71 700.41 700.98" fill="none" stroke="#fff" stroke-linecap="round" stroke-linejoin="round" stroke-width="16"/>
          <line x1="634.19" y1="645.02" x2="693.13" y2="645" fill="none" stroke="#fff" stroke-linecap="round" stroke-linejoin="round" stroke-width="16"/>
        </g>
        <path d="M416.36,431.08c-36.52-33.75-52.14,51.66-19.19,117.49s26.36,189.63-23.46,143.59" fill="none" stroke="#fff" stroke-linecap="round" stroke-linejoin="round" stroke-width="16"/>
        <g>
          <line x1="512.67" y1="422.71" x2="506.19" y2="700.75" fill="none" stroke="#fff" stroke-linecap="round" stroke-linejoin="round" stroke-width="16"/>
          <polyline points="548.63 700.75 588.63 422.71 592.32 699.92" fill="none" stroke="#fff" stroke-linecap="round" stroke-linejoin="round" stroke-width="16"/>
          <line x1="512.67" y1="422.71" x2="548.63" y2="700.75" fill="none" stroke="#fff" stroke-linecap="round" stroke-linejoin="round" stroke-width="16"/>
          <line x1="512.67" y1="422.71" x2="506.19" y2="700.75" fill="none" stroke="#fff" stroke-linecap="round" stroke-linejoin="round" stroke-width="16"/>
          <line x1="512.67" y1="422.71" x2="548.63" y2="700.75" fill="none" stroke="#fff" stroke-linecap="round" stroke-linejoin="round" stroke-width="16"/>
        </g>
      </g>
    </g>
  </g>
</svg>
