<?xml version="1.0" encoding="UTF-8"?>
<svg xmlns="http://www.w3.org/2000/svg" viewBox="0 0 1200 931.47">
  <g id="logo_circle" data-name="logo circle"/>
  <g id="brao_brao_brao_brao" data-name="brao brao brao brao"/>
  <g id="helemnejse_znzkvi_target" data-name="helemnejse znzkvi target">
    <path d="M530.58,821.08c0-2.11,0-4.22,0-6.33,.04-.32,.11-.63,.12-.95,.08-2.32,.15-4.64,.22-6.96,.17-5.02,.72-10,1.66-14.93,1.18-6.17,3.01-12.12,6.1-17.63,2.18-3.89,4.75-7.48,8.21-10.34,6.41-5.31,13.92-8.34,21.85-10.45,5.79-1.53,11.68-2.52,17.66-2.95,3.58-.26,7.17-.52,10.75-.58,3.37-.05,6.75,.16,10.12,.25,6.05,.17,12.05,.81,17.99,1.97,6.72,1.31,13.22,3.28,19.37,6.33,5.45,2.7,10.21,6.24,13.81,11.22,2.78,3.87,4.83,8.1,6.37,12.59,3.1,9.01,4.28,18.35,4.54,27.82,.24,8.73-.21,17.42-1.25,26.1-.72,5.98-2.01,11.8-4.41,17.33-4.58,10.53-12.16,17.99-22.93,22.03-6.91,2.59-14.09,4.2-21.41,5.16-6.62,.87-13.26,1.35-19.93,1.25-3.4-.05-6.79-.31-10.19-.43-.35-.01-.83,.13-1.05,.38-3.1,3.53-6.16,7.09-9.24,10.64-1.06,1.22-2.12,2.45-3.2,3.66-1.42,1.61-3.08,2.89-5.12,3.64h-1.78c-.08-.06-.16-.16-.25-.18-2.27-.42-3.4-2.01-3.89-4.06-.31-1.3-.47-2.66-.48-4-.06-4.59-.03-9.18-.01-13.78,0-.58-.15-.86-.73-1.02-1.04-.28-2.06-.64-3.07-1.01-6.33-2.35-11.88-5.88-16.42-10.91-4.58-5.07-7.63-11-9.66-17.48-2.35-7.51-3.29-15.25-3.57-23.08-.04-1.1-.13-2.2-.19-3.3Z" fill="#fff"/>
    <g id="helemnejseznzkvi">
      <g id="helemnejse">
        <g id="helem">
          <g id="h">
            <line x1="301.66" y1="253.86" x2="301.66" y2="353.86" fill="none" stroke="#fff" stroke-linecap="round" stroke-linejoin="round" stroke-width="12"/>
            <line x1="301.66" y1="303.86" x2="334.04" y2="303.86" fill="none" stroke="#fff" stroke-linecap="round" stroke-linejoin="round" stroke-width="12"/>
            <line x1="334.04" y1="253.86" x2="334.04" y2="353.86" fill="none" stroke="#fff" stroke-linecap="round" stroke-linejoin="round" stroke-width="12"/>
          </g>
          <g id="e">
            <polyline points="384.92 253.86 361.79 253.86 361.79 353.86 384.92 353.86" fill="none" stroke="#fff" stroke-linecap="round" stroke-linejoin="round" stroke-width="12"/>
            <line x1="361.79" y1="303.86" x2="380.3" y2="303.86" fill="none" stroke="#fff" stroke-linecap="round" stroke-linejoin="round" stroke-width="12"/>
          </g>
          <g id="l">
            <polyline points="412.67 253.86 412.67 353.86 445.05 353.86" fill="none" stroke="#fff" stroke-linecap="round" stroke-linejoin="round" stroke-width="12"/>
          </g>
          <g id="e-2" data-name="e">
            <polyline points="491.3 253.86 468.18 253.86 468.18 353.86 491.3 353.86" fill="none" stroke="#fff" stroke-linecap="round" stroke-linejoin="round" stroke-width="12"/>
            <line x1="468.18" y1="303.86" x2="486.68" y2="303.86" fill="none" stroke="#fff" stroke-linecap="round" stroke-linejoin="round" stroke-width="12"/>
          </g>
          <g id="m">
            <polyline points="514.43 353.86 514.43 253.86 542.18 353.86 569.94 253.86 569.94 353.86" fill="none" stroke="#fff" stroke-linecap="round" stroke-linejoin="round" stroke-width="12"/>
          </g>
        </g>
        <g id="nejse">
          <g id="n">
            <polyline points="625.44 353.86 625.44 253.86 625.44 254.17 671.69 353.86 671.69 353.86 671.69 253.86" fill="none" stroke="#fff" stroke-linecap="round" stroke-linejoin="round" stroke-width="12"/>
          </g>
          <g id="e-3" data-name="e">
            <polyline points="722.57 253.86 699.45 253.86 699.45 353.86 722.57 353.86" fill="none" stroke="#fff" stroke-linecap="round" stroke-linejoin="round" stroke-width="12"/>
            <line x1="699.45" y1="303.86" x2="717.95" y2="303.86" fill="none" stroke="#fff" stroke-linecap="round" stroke-linejoin="round" stroke-width="12"/>
          </g>
          <g id="j">
            <path d="M753.56,253.86h29.14v60c0,22.5-8.33,40-20.81,40s-20.81-15-20.81-30" fill="none" stroke="#fff" stroke-linecap="round" stroke-linejoin="round" stroke-width="12"/>
          </g>
          <g id="s">
            <path d="M836.58,276.36c4.63-12.5-4.63-22.5-13.88-22.5s-18.5,10-13.88,22.5c6.41,17.33,23.13,15,32.38,37.5s-4.63,40-18.5,40-27.75-17.5-18.5-40" fill="none" stroke="#fff" stroke-linecap="round" stroke-linejoin="round" stroke-width="12"/>
          </g>
          <g id="e-4" data-name="e">
            <polyline points="898.34 253.86 865.96 253.86 865.96 353.86 898.34 353.86" fill="none" stroke="#fff" stroke-linecap="round" stroke-linejoin="round" stroke-width="12"/>
            <line x1="865.96" y1="303.86" x2="893.71" y2="303.86" fill="none" stroke="#fff" stroke-linecap="round" stroke-linejoin="round" stroke-width="12"/>
          </g>
        </g>
      </g>
      <g id="znzkvi">
        <g id="z">
          <polyline points="301.66 401.63 361.68 401.63 301.66 706.14 361.68 706.14" fill="none" stroke="#fff" stroke-linecap="round" stroke-linejoin="round" stroke-width="16"/>
        </g>
        <g id="n-2" data-name="n">
          <polyline points="406.04 706.14 406.04 401.63 486.84 706.14 486.84 401.63" fill="none" stroke="#fff" stroke-linecap="round" stroke-linejoin="round" stroke-width="16"/>
        </g>
        <g id="z-2" data-name="z">
          <polyline points="534.04 401.63 594.05 401.63 534.04 706.14 594.05 706.14" fill="none" stroke="#fff" stroke-linecap="round" stroke-linejoin="round" stroke-width="16"/>
        </g>
        <g id="k">
          <line x1="647.62" y1="401.63" x2="647.62" y2="706.14" fill="none" stroke="#fff" stroke-linecap="round" stroke-linejoin="round" stroke-width="16"/>
          <path d="M647.62,614.79c38.33-91.12,62.03-182.76,68.41-213.16" fill="none" stroke="#fff" stroke-linecap="round" stroke-linejoin="round" stroke-width="16"/>
          <path d="M669.72,558.11c13.69,37.11,53.47,123.16,68.91,148.04" fill="none" stroke="#fff" stroke-linecap="round" stroke-linejoin="round" stroke-width="16"/>
        </g>
        <g id="v">
          <polyline points="767.7 401.63 810.21 706.14 843.78 401.63" fill="none" stroke="#fff" stroke-linecap="round" stroke-linejoin="round" stroke-width="16"/>
        </g>
        <g id="i">
          <line x1="898.34" y1="401.63" x2="898.34" y2="706.14" fill="none" stroke="#fff" stroke-linecap="round" stroke-linejoin="round" stroke-width="16"/>
        </g>
      </g>
    </g>
    <g id="target">
      <circle cx="600" cy="121.76" r="50" fill="none" stroke="#1e9600" stroke-miterlimit="10" stroke-width="100"/>
      <circle cx="600" cy="121.76" r="35" fill="none" stroke="#fff200" stroke-miterlimit="10" stroke-width="70"/>
      <circle cx="600" cy="121.76" r="20" fill="none" stroke="#ff0307" stroke-miterlimit="10" stroke-width="40"/>
    </g>
    <path d="M569.13,895c.36-.33,.56-.49,.74-.68,3.18-3.53,6.36-7.07,9.54-10.6,3.61-4.02,7.24-8.02,10.84-12.05,.42-.47,.86-.66,1.48-.61,1.02,.08,2.05,.16,3.07,.17,5.24,.06,10.48,.11,15.7-.48,3.26-.37,6.54-.66,9.76-1.27,4.14-.78,8.26-1.75,12.34-2.82,7.16-1.87,13.18-5.57,17.67-11.56,3.74-5,5.92-10.69,6.99-16.78,.62-3.52,.98-7.09,1.31-10.65,.32-3.44,.54-6.89,.63-10.34,.15-5.89-.13-11.76-.93-17.6-.77-5.62-2.06-11.1-4.24-16.36-3.04-7.36-7.98-12.84-15.4-16.02-4.42-1.9-8.95-3.4-13.64-4.45-5.43-1.22-10.94-1.88-16.49-2.18-2.75-.15-5.5-.2-8.26-.27-6.38-.16-12.73,.25-19.04,1.21-5.64,.86-11.14,2.2-16.42,4.4-4.14,1.72-8.03,3.88-11.29,7-3.56,3.42-6.05,7.57-7.87,12.14-3.03,7.57-4.06,15.52-4.34,23.57-.19,5.23-.11,10.48-.02,15.72,.09,5.52,.85,10.96,2.29,16.29,1.51,5.6,3.88,10.8,7.61,15.31,4.55,5.5,10.4,8.99,17.17,11.04,.64,.19,.81,.46,.81,1.11-.02,8.54-.01,17.08-.01,25.63,0,.31,0,.62,0,1.14Z" fill="#fff"/>
    <path d="M569.13,895c.36-.33,.56-.49,.74-.68,3.18-3.53,6.36-7.07,9.54-10.6,3.61-4.02,7.24-8.02,10.84-12.05,.42-.47,.86-.66,1.48-.61,1.02,.08,2.05,.16,3.07,.17,5.24,.06,10.48,.11,15.7-.48,3.26-.37,6.54-.66,9.76-1.27,4.14-.78,8.26-1.75,12.34-2.82,7.16-1.87,13.18-5.57,17.67-11.56,3.74-5,5.92-10.69,6.99-16.78,.62-3.52,.98-7.09,1.31-10.65,.32-3.44,.54-6.89,.63-10.34,.15-5.89-.13-11.76-.93-17.6-.77-5.62-2.06-11.1-4.24-16.36-3.04-7.36-7.98-12.84-15.4-16.02-4.42-1.9-8.95-3.4-13.64-4.45-5.43-1.22-10.94-1.88-16.49-2.18-2.75-.15-5.5-.2-8.26-.27-6.38-.16-12.73,.25-19.04,1.21-5.64,.86-11.14,2.2-16.42,4.4-4.14,1.72-8.03,3.88-11.29,7-3.56,3.42-6.05,7.57-7.87,12.14-3.03,7.57-4.06,15.52-4.34,23.57-.19,5.23-.11,10.48-.02,15.72,.09,5.52,.85,10.96,2.29,16.29,1.51,5.6,3.88,10.8,7.61,15.31,4.55,5.5,10.4,8.99,17.17,11.04,.64,.19,.81,.46,.81,1.11-.02,8.54-.01,17.08-.01,25.63,0,.31,0,.62,0,1.14Z" fill="#a248a2"/>
    <path d="M562.04,797.37c5.68,16.75,15.61,30.63,28.89,42.16,8.06,7,17.22,12.22,27.09,16.25,2.14,.88,4.25,.81,6.37-.07,2.73-1.14,4.71-3.2,6.54-5.42,1.43-1.73,2.8-3.52,3.5-5.69,.71-2.18,.4-4.23-1.34-5.78-4.25-3.8-8.74-7.31-13.7-10.15-2.71-1.56-6.48-1.29-8.42,1.62-.7,1.05-1.55,2.01-2.33,3.01-.83,1.07-1.94,1.77-3.28,1.57-1.5-.23-3.01-.63-4.4-1.21-4.61-1.94-8.35-5.12-11.72-8.75-3.24-3.5-5.7-7.45-6.68-12.19-.44-2.13-.03-4.01,1.8-5.42,1.07-.82,2.12-1.67,3.13-2.57,2.32-2.07,2.79-3.8,1.53-6.64-2.56-5.78-6.46-10.64-10.84-15.11-2.01-2.05-4.9-2.27-7.06-.77-2.32,1.62-4.59,3.33-6.74,5.17-1.79,1.53-3.13,3.44-3.28,6.01,.31,1.33,.5,2.7,.94,3.99Zm69.54,8.8c-3.5-12.63-11.6-20.62-24.3-23.89-2.64-.68-5.36-.94-8.09-.91-.54,0-.91,.21-.93,.77-.01,.56,.33,.81,.88,.82,.51,.02,1.02,.1,1.53,.1,2.55,.03,5.05,.39,7.48,1.12,11.16,3.39,18.42,10.68,21.71,21.88,1.05,3.59,1.46,7.28,1.48,11.01,0,.22-.07,.49,.04,.63,.21,.27,.55,.68,.77,.65,.29-.05,.67-.45,.73-.75,.11-.6,.03-1.24,.03-1.64-.1-3.46-.47-6.67-1.34-9.8Zm-7.37,6.37c-.14-1.26-.21-2.53-.44-3.77-1.39-7.55-5.46-13.09-12.5-16.32-2.84-1.3-5.88-1.91-8.99-2.16-.62-.05-1.02,.2-1.04,.83-.03,.76,.58,.8,1.12,.88,1.44,.22,2.9,.33,4.3,.67,6.85,1.64,11.67,5.69,14.34,12.24,1.15,2.82,1.48,5.78,1.53,8.79,0,.58,.12,1.11,.76,1.12,.67,.01,.88-.51,.84-1.13-.02-.38,0-.76,0-1.14h.08Zm-9.04-4.05c-1.16-6.2-5.02-8.45-10.01-8.95-.6-.06-1.25-.09-1.39,.72-.1,.57,.43,.93,1.29,.98,.48,.03,.97,.08,1.44,.18,3.32,.68,5.74,2.45,6.68,5.82,.32,1.15,.45,2.37,.61,3.56,.08,.58,.29,1.02,.92,1.01,.62-.01,.68-.5,.67-.99,0-.19,0-.38,0-.74-.06-.42-.11-1.01-.22-1.59Z" fill="#fff"/>
    <g>
      <path d="M104.89,834.18c-14.76,0-18.36-4.92-18.36-12.24v-20.46c0-7.32,3.6-12.3,18.36-12.3s18.3,4.98,18.3,12.3v20.46c0,7.32-3.54,12.24-18.3,12.24Zm0-11.58c4.14,0,4.8-1.2,4.8-2.82v-16.14c0-1.56-.66-2.76-4.8-2.76s-4.8,1.2-4.8,2.76v16.14c0,1.62,.72,2.82,4.8,2.82Z" fill="#a248a2"/>
      <path d="M130.15,822.06v-19.68c0-7.32,3.42-12.3,14.76-12.3h13.8c1.56,0,2.16,.66,2.16,2.16v7.08c0,1.5-.66,2.16-2.16,2.16h-11.22c-2.94,0-3.78,.66-3.78,3.6v1.32c1.92-.6,4.44-.9,7.62-.9,10.86,0,14.1,3.66,14.1,10.8v5.76c0,7.32-3.48,12.12-17.28,12.12-14.76,0-18-4.8-18-12.12Zm13.56-.96c0,1.26,.54,2.22,4.02,2.22s4.14-.96,4.14-2.22v-3.54c0-1.2-.54-2.16-4.14-2.16s-4.02,.96-4.02,2.16v3.54Z" fill="#a248a2"/>
      <path d="M173.29,833.28c-1.5,0-2.16-.66-2.16-2.16v-7.26c0-1.5,.66-2.16,2.16-2.16h6.72v-20.04h-5.52c-1.5,0-2.16-.66-2.16-2.16v-7.26c0-1.5,.66-2.16,2.16-2.16h17.4c1.5,0,2.16,.66,2.16,2.16v29.46h5.76c1.5,0,2.16,.66,2.16,2.16v7.26c0,1.5-.66,2.16-2.16,2.16h-26.52Z" fill="#a248a2"/>
      <path d="M222.37,833.28c-1.5,0-2.16-.66-2.16-2.16v-10.32c0-9.3,3.9-11.46,9.42-13.14l8.04-2.52c1.26-.36,1.62-.84,1.62-2.16,0-1.2-.42-1.56-1.62-1.56h-13.02c-1.5,0-2.16-.66-2.16-2.16v-7.02c0-1.5,.66-2.16,2.16-2.16h17.7c6.84,0,10.56,3.48,10.56,9.96v5.64c0,6.06-3.54,8.82-9.36,10.62l-8.16,2.58c-1.2,.36-1.56,.48-1.56,1.8v1.26h17.1c1.5,0,2.16,.66,2.16,2.16v7.02c0,1.5-.66,2.16-2.16,2.16h-28.56Z" fill="#a248a2"/>
      <path d="M260.71,833.28c-1.5,0-2.16-.66-2.16-2.16v-10.32c0-9.3,3.9-11.46,9.42-13.14l8.04-2.52c1.26-.36,1.62-.84,1.62-2.16,0-1.2-.42-1.56-1.62-1.56h-13.02c-1.5,0-2.16-.66-2.16-2.16v-7.02c0-1.5,.66-2.16,2.16-2.16h17.7c6.84,0,10.56,3.48,10.56,9.96v5.64c0,6.06-3.54,8.82-9.36,10.62l-8.16,2.58c-1.2,.36-1.56,.48-1.56,1.8v1.26h17.1c1.5,0,2.16,.66,2.16,2.16v7.02c0,1.5-.66,2.16-2.16,2.16h-28.56Z" fill="#a248a2"/>
      <path d="M299.05,833.28c-1.5,0-2.16-.66-2.16-2.16v-10.32c0-9.3,3.9-11.46,9.42-13.14l8.04-2.52c1.26-.36,1.62-.84,1.62-2.16,0-1.2-.42-1.56-1.62-1.56h-13.02c-1.5,0-2.16-.66-2.16-2.16v-7.02c0-1.5,.66-2.16,2.16-2.16h17.7c6.84,0,10.56,3.48,10.56,9.96v5.64c0,6.06-3.54,8.82-9.36,10.62l-8.16,2.58c-1.2,.36-1.56,.48-1.56,1.8v1.26h17.1c1.5,0,2.16,.66,2.16,2.16v7.02c0,1.5-.66,2.16-2.16,2.16h-28.56Z" fill="#a248a2"/>
      <path d="M366.49,821.94c1.92,0,2.28-.84,2.28-1.8v-1.62c0-.96-.36-1.74-2.28-1.74h-10.2c-1.5,0-2.16-.66-2.16-2.16v-6.42c0-1.5,.66-2.16,2.16-2.16h6.3c1.92,0,2.28-.84,2.28-1.8v-.9c0-.96-.36-1.8-2.28-1.8h-11.16c-1.5,0-2.16-.66-2.16-2.16v-7.14c0-1.5,.66-2.16,2.16-2.16h16.74c6.66,0,9.84,3.3,9.84,8.58v3.48c0,3.06-.9,5.34-3.54,6.48,5.7,.66,7.56,3.42,7.56,8.7v6c0,6.18-3.96,9.96-11.64,9.96h-18.96c-1.5,0-2.16-.66-2.16-2.16v-7.02c0-1.5,.66-2.16,2.16-2.16h15.06Z" fill="#a248a2"/>
      <path d="M404.71,821.94c1.92,0,2.28-.84,2.28-1.8v-1.62c0-.96-.36-1.74-2.28-1.74h-10.2c-1.5,0-2.16-.66-2.16-2.16v-6.42c0-1.5,.66-2.16,2.16-2.16h6.3c1.92,0,2.28-.84,2.28-1.8v-.9c0-.96-.36-1.8-2.28-1.8h-11.16c-1.5,0-2.16-.66-2.16-2.16v-7.14c0-1.5,.66-2.16,2.16-2.16h16.74c6.66,0,9.84,3.3,9.84,8.58v3.48c0,3.06-.9,5.34-3.54,6.48,5.7,.66,7.56,3.42,7.56,8.7v6c0,6.18-3.96,9.96-11.64,9.96h-18.96c-1.5,0-2.16-.66-2.16-2.16v-7.02c0-1.5,.66-2.16,2.16-2.16h15.06Z" fill="#a248a2"/>
      <path d="M442.93,821.94c1.92,0,2.28-.84,2.28-1.8v-1.62c0-.96-.36-1.74-2.28-1.74h-10.2c-1.5,0-2.16-.66-2.16-2.16v-6.42c0-1.5,.66-2.16,2.16-2.16h6.3c1.92,0,2.28-.84,2.28-1.8v-.9c0-.96-.36-1.8-2.28-1.8h-11.16c-1.5,0-2.16-.66-2.16-2.16v-7.14c0-1.5,.66-2.16,2.16-2.16h16.74c6.66,0,9.84,3.3,9.84,8.58v3.48c0,3.06-.9,5.34-3.54,6.48,5.7,.66,7.56,3.42,7.56,8.7v6c0,6.18-3.96,9.96-11.64,9.96h-18.96c-1.5,0-2.16-.66-2.16-2.16v-7.02c0-1.5,.66-2.16,2.16-2.16h15.06Z" fill="#a248a2"/>
    </g>
    <g>
      <path d="M760.85,834.18c-14.76,0-18.36-4.92-18.36-12.24v-20.46c0-7.32,3.6-12.3,18.36-12.3s18.3,4.98,18.3,12.3v20.46c0,7.32-3.54,12.24-18.3,12.24Zm0-11.58c4.14,0,4.8-1.2,4.8-2.82v-16.14c0-1.56-.66-2.76-4.8-2.76s-4.8,1.2-4.8,2.76v16.14c0,1.62,.72,2.82,4.8,2.82Z" fill="#a248a2"/>
      <path d="M786.11,822.06v-19.68c0-7.32,3.42-12.3,14.76-12.3h13.8c1.56,0,2.16,.66,2.16,2.16v7.08c0,1.5-.66,2.16-2.16,2.16h-11.22c-2.94,0-3.78,.66-3.78,3.6v1.32c1.92-.6,4.44-.9,7.62-.9,10.86,0,14.1,3.66,14.1,10.8v5.76c0,7.32-3.48,12.12-17.28,12.12-14.76,0-18-4.8-18-12.12Zm13.56-.96c0,1.26,.54,2.22,4.02,2.22s4.14-.96,4.14-2.22v-3.54c0-1.2-.54-2.16-4.14-2.16s-4.02,.96-4.02,2.16v3.54Z" fill="#a248a2"/>
      <path d="M829.25,833.28c-1.5,0-2.16-.66-2.16-2.16v-7.26c0-1.5,.66-2.16,2.16-2.16h6.72v-20.04h-5.52c-1.5,0-2.16-.66-2.16-2.16v-7.26c0-1.5,.66-2.16,2.16-2.16h17.4c1.5,0,2.16,.66,2.16,2.16v29.46h5.76c1.5,0,2.16,.66,2.16,2.16v7.26c0,1.5-.66,2.16-2.16,2.16h-26.52Z" fill="#a248a2"/>
      <path d="M878.33,833.28c-1.5,0-2.16-.66-2.16-2.16v-10.32c0-9.3,3.9-11.46,9.42-13.14l8.04-2.52c1.26-.36,1.62-.84,1.62-2.16,0-1.2-.42-1.56-1.62-1.56h-13.02c-1.5,0-2.16-.66-2.16-2.16v-7.02c0-1.5,.66-2.16,2.16-2.16h17.7c6.84,0,10.56,3.48,10.56,9.96v5.64c0,6.06-3.54,8.82-9.36,10.62l-8.16,2.58c-1.2,.36-1.56,.48-1.56,1.8v1.26h17.1c1.5,0,2.16,.66,2.16,2.16v7.02c0,1.5-.66,2.16-2.16,2.16h-28.56Z" fill="#a248a2"/>
      <path d="M916.67,833.28c-1.5,0-2.16-.66-2.16-2.16v-10.32c0-9.3,3.9-11.46,9.42-13.14l8.04-2.52c1.26-.36,1.62-.84,1.62-2.16,0-1.2-.42-1.56-1.62-1.56h-13.02c-1.5,0-2.16-.66-2.16-2.16v-7.02c0-1.5,.66-2.16,2.16-2.16h17.7c6.84,0,10.56,3.48,10.56,9.96v5.64c0,6.06-3.54,8.82-9.36,10.62l-8.16,2.58c-1.2,.36-1.56,.48-1.56,1.8v1.26h17.1c1.5,0,2.16,.66,2.16,2.16v7.02c0,1.5-.66,2.16-2.16,2.16h-28.56Z" fill="#a248a2"/>
      <path d="M955.01,833.28c-1.5,0-2.16-.66-2.16-2.16v-10.32c0-9.3,3.9-11.46,9.42-13.14l8.04-2.52c1.26-.36,1.62-.84,1.62-2.16,0-1.2-.42-1.56-1.62-1.56h-13.02c-1.5,0-2.16-.66-2.16-2.16v-7.02c0-1.5,.66-2.16,2.16-2.16h17.7c6.84,0,10.56,3.48,10.56,9.96v5.64c0,6.06-3.54,8.82-9.36,10.62l-8.16,2.58c-1.2,.36-1.56,.48-1.56,1.8v1.26h17.1c1.5,0,2.16,.66,2.16,2.16v7.02c0,1.5-.66,2.16-2.16,2.16h-28.56Z" fill="#a248a2"/>
      <path d="M1022.45,821.94c1.92,0,2.28-.84,2.28-1.8v-1.62c0-.96-.36-1.74-2.28-1.74h-10.2c-1.5,0-2.16-.66-2.16-2.16v-6.42c0-1.5,.66-2.16,2.16-2.16h6.3c1.92,0,2.28-.84,2.28-1.8v-.9c0-.96-.36-1.8-2.28-1.8h-11.16c-1.5,0-2.16-.66-2.16-2.16v-7.14c0-1.5,.66-2.16,2.16-2.16h16.74c6.66,0,9.84,3.3,9.84,8.58v3.48c0,3.06-.9,5.34-3.54,6.48,5.7,.66,7.56,3.42,7.56,8.7v6c0,6.18-3.96,9.96-11.64,9.96h-18.96c-1.5,0-2.16-.66-2.16-2.16v-7.02c0-1.5,.66-2.16,2.16-2.16h15.06Z" fill="#a248a2"/>
      <path d="M1060.67,821.94c1.92,0,2.28-.84,2.28-1.8v-1.62c0-.96-.36-1.74-2.28-1.74h-10.2c-1.5,0-2.16-.66-2.16-2.16v-6.42c0-1.5,.66-2.16,2.16-2.16h6.3c1.92,0,2.28-.84,2.28-1.8v-.9c0-.96-.36-1.8-2.28-1.8h-11.16c-1.5,0-2.16-.66-2.16-2.16v-7.14c0-1.5,.66-2.16,2.16-2.16h16.74c6.66,0,9.84,3.3,9.84,8.58v3.48c0,3.06-.9,5.34-3.54,6.48,5.7,.66,7.56,3.42,7.56,8.7v6c0,6.18-3.96,9.96-11.64,9.96h-18.96c-1.5,0-2.16-.66-2.16-2.16v-7.02c0-1.5,.66-2.16,2.16-2.16h15.06Z" fill="#a248a2"/>
      <path d="M1098.88,821.94c1.92,0,2.28-.84,2.28-1.8v-1.62c0-.96-.36-1.74-2.28-1.74h-10.2c-1.5,0-2.16-.66-2.16-2.16v-6.42c0-1.5,.66-2.16,2.16-2.16h6.3c1.92,0,2.28-.84,2.28-1.8v-.9c0-.96-.36-1.8-2.28-1.8h-11.16c-1.5,0-2.16-.66-2.16-2.16v-7.14c0-1.5,.66-2.16,2.16-2.16h16.74c6.66,0,9.84,3.3,9.84,8.58v3.48c0,3.06-.9,5.34-3.54,6.48,5.7,.66,7.56,3.42,7.56,8.7v6c0,6.18-3.96,9.96-11.64,9.96h-18.96c-1.5,0-2.16-.66-2.16-2.16v-7.02c0-1.5,.66-2.16,2.16-2.16h15.06Z" fill="#a248a2"/>
    </g>
  </g>
  <g id="helmnejseznzkvi"/>
  <g id="dobili_ste_po_usima" data-name="dobili ste po usima"/>
  <g id="haj_skor" data-name="haj skor"/>
</svg>