<svg xmlns="http://www.w3.org/2000/svg" viewBox="0 0 770 770">
  <g id="Layer_2" data-name="Layer 2">
    <g>
      <circle cx="385" cy="131.76" r="91.57" fill="#1e9600"/>
      <circle cx="385" cy="131.76" r="62.95" fill="#fff200"/>
      <circle cx="385" cy="131.76" r="34.34" fill="#ff0307"/>
    </g>
  </g>
  <g id="Layer_1" data-name="Layer 1">
    <g>
      <g>
        <line x1="86.66" y1="253.86" x2="86.66" y2="353.86" fill="none" stroke="#fff" stroke-linecap="round" stroke-linejoin="round" stroke-width="12"/>
        <line x1="86.66" y1="303.86" x2="119.04" y2="303.86" fill="none" stroke="#fff" stroke-linecap="round" stroke-linejoin="round" stroke-width="12"/>
        <line x1="119.04" y1="253.86" x2="119.04" y2="353.86" fill="none" stroke="#fff" stroke-linecap="round" stroke-linejoin="round" stroke-width="12"/>
        <line x1="354.94" y1="253.86" x2="354.94" y2="353.86" fill="none" stroke="#fff" stroke-linecap="round" stroke-linejoin="round" stroke-width="12"/>
        <line x1="299.43" y1="353.86" x2="299.43" y2="253.86" fill="none" stroke="#fff" stroke-linecap="round" stroke-linejoin="round" stroke-width="12"/>
        <polyline points="299.43 253.86 327.18 353.86 354.94 253.86" fill="none" stroke="#fff" stroke-linecap="round" stroke-linejoin="round" stroke-width="12"/>
        <line x1="410.44" y1="253.86" x2="410.44" y2="353.86" fill="none" stroke="#fff" stroke-linecap="round" stroke-linejoin="round" stroke-width="12"/>
        <line x1="456.69" y1="253.86" x2="456.69" y2="353.86" fill="none" stroke="#fff" stroke-linecap="round" stroke-linejoin="round" stroke-width="12"/>
        <line x1="456.69" y1="353.86" x2="410.44" y2="254.17" fill="none" stroke="#fff" stroke-linecap="round" stroke-linejoin="round" stroke-width="12"/>
        <polyline points="507.57 253.86 484.44 253.86 484.44 353.86 507.57 353.86" fill="none" stroke="#fff" stroke-linecap="round" stroke-linejoin="round" stroke-width="12"/>
        <line x1="484.45" y1="303.86" x2="502.95" y2="303.86" fill="none" stroke="#fff" stroke-linecap="round" stroke-linejoin="round" stroke-width="12"/>
        <polyline points="683.34 253.86 650.96 253.86 650.96 353.86 683.34 353.86" fill="none" stroke="#fff" stroke-linecap="round" stroke-linejoin="round" stroke-width="12"/>
        <line x1="650.96" y1="303.86" x2="678.71" y2="303.86" fill="none" stroke="#fff" stroke-linecap="round" stroke-linejoin="round" stroke-width="12"/>
        <path d="M589.2,313.86c-9.25,22.5,4.62,40,18.5,40s27.75-17.5,18.5-40-26-20.17-32.38-37.5c-4.62-12.5,4.63-22.5,13.88-22.5s18.5,10,13.88,22.5" fill="none" stroke="#fff" stroke-linecap="round" stroke-linejoin="round" stroke-width="12"/>
        <path d="M526.07,323.86c0,15,8.33,30,20.82,30s20.81-17.5,20.81-40v-60H538.56" fill="none" stroke="#fff" stroke-linecap="round" stroke-linejoin="round" stroke-width="12"/>
        <polyline points="169.92 253.86 146.79 253.86 146.79 353.86 169.92 353.86" fill="none" stroke="#fff" stroke-linecap="round" stroke-linejoin="round" stroke-width="12"/>
        <polyline points="197.67 253.86 197.67 353.86 230.05 353.86" fill="none" stroke="#fff" stroke-linecap="round" stroke-linejoin="round" stroke-width="12"/>
        <line x1="146.79" y1="303.86" x2="165.3" y2="303.86" fill="none" stroke="#fff" stroke-linecap="round" stroke-linejoin="round" stroke-width="12"/>
        <polyline points="276.3 253.86 253.18 253.86 253.18 353.86 276.3 353.86" fill="none" stroke="#fff" stroke-linecap="round" stroke-linejoin="round" stroke-width="12"/>
        <line x1="253.18" y1="303.86" x2="271.68" y2="303.86" fill="none" stroke="#fff" stroke-linecap="round" stroke-linejoin="round" stroke-width="12"/>
      </g>
      <g>
        <line x1="432.62" y1="401.63" x2="432.62" y2="706.14" fill="none" stroke="#fff" stroke-linecap="round" stroke-linejoin="round" stroke-width="16"/>
        <path d="M454.72,558.11c13.69,37.1,53.48,123.15,68.91,148" fill="none" stroke="#fff" stroke-linecap="round" stroke-linejoin="round" stroke-width="16"/>
        <path d="M432.62,614.79c38.32-91.12,62-182.76,68.41-213.16" fill="none" stroke="#fff" stroke-linecap="round" stroke-linejoin="round" stroke-width="16"/>
      </g>
      <g>
        <line x1="191.04" y1="401.63" x2="191.04" y2="706.14" fill="none" stroke="#fff" stroke-linecap="round" stroke-linejoin="round" stroke-width="16"/>
        <line x1="271.84" y1="401.63" x2="271.84" y2="706.14" fill="none" stroke="#fff" stroke-linecap="round" stroke-linejoin="round" stroke-width="16"/>
        <line x1="191.04" y1="401.63" x2="271.84" y2="706.14" fill="none" stroke="#fff" stroke-linecap="round" stroke-linejoin="round" stroke-width="16"/>
        <line x1="191.04" y1="401.63" x2="191.04" y2="706.14" fill="none" stroke="#fff" stroke-linecap="round" stroke-linejoin="round" stroke-width="16"/>
      </g>
      <line x1="683.34" y1="401.63" x2="683.34" y2="706.14" fill="none" stroke="#fff" stroke-linecap="round" stroke-linejoin="round" stroke-width="16"/>
      <g>
        <line x1="146.68" y1="401.63" x2="86.66" y2="401.63" fill="none" stroke="#fff" stroke-linecap="round" stroke-linejoin="round" stroke-width="16"/>
        <line x1="146.68" y1="706.14" x2="86.66" y2="706.14" fill="none" stroke="#fff" stroke-linecap="round" stroke-linejoin="round" stroke-width="16"/>
        <line x1="146.68" y1="401.63" x2="86.66" y2="706.14" fill="none" stroke="#fff" stroke-linecap="round" stroke-linejoin="round" stroke-width="16"/>
      </g>
      <g>
        <line x1="379.05" y1="401.63" x2="319.04" y2="401.63" fill="none" stroke="#fff" stroke-linecap="round" stroke-linejoin="round" stroke-width="16"/>
        <line x1="379.05" y1="706.14" x2="319.04" y2="706.14" fill="none" stroke="#fff" stroke-linecap="round" stroke-linejoin="round" stroke-width="16"/>
        <line x1="379.05" y1="401.63" x2="319.04" y2="706.14" fill="none" stroke="#fff" stroke-linecap="round" stroke-linejoin="round" stroke-width="16"/>
        <line x1="379.05" y1="401.63" x2="319.04" y2="706.14" fill="none" stroke="#fff" stroke-linecap="round" stroke-linejoin="round" stroke-width="16"/>
      </g>
      <g>
        <line x1="595.21" y1="706.14" x2="628.78" y2="401.63" fill="none" stroke="#fff" stroke-linecap="round" stroke-linejoin="round" stroke-width="16"/>
        <line x1="552.7" y1="401.63" x2="595.21" y2="706.14" fill="none" stroke="#fff" stroke-linecap="round" stroke-linejoin="round" stroke-width="16"/>
      </g>
    </g>
  </g>
</svg>
